<svg xmlns="http://www.w3.org/2000/svg" xmlns:xlink="http://www.w3.org/1999/xlink" width="583" zoomAndPan="magnify" viewBox="0 0 437.25 443.249984" height="591" preserveAspectRatio="xMidYMid meet" version="1.0"><defs><g/><clipPath id="c3a59b20c0"><path d="M 93 31.632812 L 413 31.632812 L 413 343.097656 L 93 343.097656 Z M 93 31.632812 " clip-rule="nonzero"/></clipPath></defs><g clip-path="url(#c3a59b20c0)"><path fill="#ee6600" d="M 267.699219 31.574219 C 261.300781 31.574219 254.90625 34 250.066406 38.84375 C 249.578125 39.335938 249.203125 39.902344 248.941406 40.542969 C 248.9375 40.550781 248.933594 40.558594 248.933594 40.5625 C 243.824219 46.628906 241.964844 54.566406 243.484375 61.914062 L 179.722656 125.6875 C 177.921875 125.285156 176.09375 125.027344 174.257812 125.027344 C 167.859375 125.027344 161.453125 127.453125 156.613281 132.296875 C 156.121094 132.789062 155.742188 133.359375 155.480469 134.007812 C 155.480469 134.011719 155.480469 134.011719 155.480469 134.015625 C 147.257812 143.78125 147.433594 158.394531 156.613281 167.574219 L 201.507812 212.46875 C 210.695312 221.65625 225.332031 221.835938 235.09375 213.589844 C 235.734375 213.328125 236.296875 212.957031 236.785156 212.46875 C 243.023438 206.234375 245.1875 197.433594 243.394531 189.359375 L 264.492188 168.261719 L 386.429688 290.191406 C 392.34375 296.101562 402.046875 296.101562 407.960938 290.191406 C 413.871094 284.273438 413.875 274.570312 407.960938 268.660156 L 286.03125 146.730469 L 307.167969 125.59375 C 314.523438 127.121094 322.480469 125.261719 328.546875 120.136719 C 329.1875 119.875 329.75 119.503906 330.238281 119.015625 C 339.921875 109.332031 339.921875 93.421875 330.238281 83.738281 L 285.34375 38.84375 C 280.5 34 274.097656 31.574219 267.699219 31.574219 Z M 267.699219 41.910156 C 271.433594 41.910156 275.171875 43.328125 278.015625 46.171875 L 322.910156 91.066406 C 328.597656 96.753906 328.597656 106 322.910156 111.6875 C 318.863281 115.734375 313.023438 116.839844 307.9375 115.128906 C 307.585938 114.953125 307.21875 114.824219 306.835938 114.734375 C 305.1875 114.023438 303.632812 113.03125 302.289062 111.6875 L 257.394531 66.792969 C 251.707031 61.105469 251.707031 51.859375 257.394531 46.171875 C 260.238281 43.328125 263.96875 41.910156 267.699219 41.910156 Z M 248.203125 71.863281 C 248.800781 72.628906 249.359375 73.414062 250.066406 74.121094 L 294.960938 119.015625 C 295.664062 119.71875 296.453125 120.277344 297.21875 120.878906 L 238.707031 179.386719 C 238.109375 178.628906 237.484375 177.890625 236.785156 177.191406 L 191.890625 132.296875 C 191.191406 131.597656 190.453125 130.96875 189.695312 130.371094 Z M 250.773438 81.84375 C 250.074219 81.867188 249.480469 82.128906 248.992188 82.632812 L 242.667969 88.949219 C 242.414062 89.191406 242.21875 89.472656 242.082031 89.792969 C 241.945312 90.109375 241.871094 90.445312 241.871094 90.792969 C 241.867188 91.140625 241.929688 91.476562 242.0625 91.800781 C 242.191406 92.121094 242.382812 92.40625 242.628906 92.652344 C 242.875 92.898438 243.160156 93.085938 243.480469 93.21875 C 243.804688 93.351562 244.140625 93.414062 244.488281 93.410156 C 244.835938 93.40625 245.167969 93.335938 245.488281 93.199219 C 245.808594 93.0625 246.089844 92.867188 246.332031 92.613281 L 252.65625 86.296875 C 253.042969 85.925781 253.289062 85.476562 253.394531 84.953125 C 253.503906 84.429688 253.453125 83.917969 253.242188 83.425781 C 253.035156 82.933594 252.703125 82.539062 252.253906 82.253906 C 251.804688 81.964844 251.308594 81.828125 250.773438 81.84375 Z M 235.449219 97.171875 C 234.746094 97.191406 234.152344 97.457031 233.667969 97.960938 L 205.261719 126.355469 C 205.011719 126.59375 204.816406 126.875 204.679688 127.195312 C 204.539062 127.515625 204.46875 127.847656 204.464844 128.195312 C 204.460938 128.546875 204.527344 128.878906 204.660156 129.203125 C 204.789062 129.523438 204.980469 129.808594 205.226562 130.054688 C 205.472656 130.300781 205.753906 130.492188 206.078125 130.621094 C 206.402344 130.753906 206.734375 130.816406 207.082031 130.816406 C 207.433594 130.8125 207.765625 130.742188 208.085938 130.601562 C 208.40625 130.464844 208.6875 130.269531 208.925781 130.019531 L 237.332031 101.625 C 237.714844 101.25 237.960938 100.804688 238.070312 100.277344 C 238.175781 99.753906 238.125 99.246094 237.917969 98.75 C 237.710938 98.257812 237.378906 97.867188 236.929688 97.578125 C 236.476562 97.289062 235.984375 97.152344 235.449219 97.171875 Z M 174.257812 135.351562 C 177.988281 135.351562 181.71875 136.78125 184.5625 139.625 L 229.457031 184.519531 C 230.773438 185.839844 231.753906 187.359375 232.460938 188.972656 C 232.558594 189.425781 232.714844 189.859375 232.929688 190.269531 C 234.589844 195.332031 233.476562 201.113281 229.457031 205.128906 C 223.769531 210.816406 214.523438 210.816406 208.835938 205.128906 L 163.941406 160.246094 C 158.253906 154.558594 158.253906 145.3125 163.941406 139.625 C 166.785156 136.78125 170.523438 135.351562 174.257812 135.351562 Z M 282.378906 150.40625 L 404.296875 272.324219 C 408.210938 276.238281 408.210938 282.605469 404.296875 286.527344 C 400.382812 290.441406 394.007812 290.441406 390.09375 286.527344 L 268.15625 164.597656 L 282.175781 150.578125 C 282.242188 150.515625 282.3125 150.46875 282.378906 150.40625 Z M 141.882812 270.550781 C 134.949219 270.550781 129.25 276.257812 129.25 283.195312 L 129.25 283.84375 C 129.25 284.621094 129.347656 285.371094 129.484375 286.109375 L 109.238281 286.109375 C 108.648438 286.109375 108.074219 286.210938 107.515625 286.40625 C 106.960938 286.601562 106.453125 286.886719 105.992188 287.253906 C 105.53125 287.625 105.144531 288.0625 104.835938 288.5625 C 104.523438 289.066406 104.304688 289.605469 104.175781 290.179688 L 93.941406 336.824219 C 93.859375 337.203125 93.820312 337.585938 93.820312 337.976562 C 93.824219 338.363281 93.871094 338.746094 93.957031 339.121094 C 94.046875 339.5 94.175781 339.863281 94.347656 340.210938 C 94.515625 340.558594 94.722656 340.882812 94.964844 341.1875 C 95.207031 341.488281 95.480469 341.761719 95.785156 342 C 96.089844 342.242188 96.414062 342.445312 96.765625 342.613281 C 97.113281 342.78125 97.476562 342.90625 97.855469 342.992188 C 98.234375 343.078125 98.617188 343.121094 99.003906 343.121094 L 302.25 343.121094 C 302.636719 343.121094 303.019531 343.078125 303.398438 342.992188 C 303.773438 342.90625 304.136719 342.78125 304.488281 342.613281 C 304.835938 342.445312 305.164062 342.242188 305.46875 342 C 305.769531 341.761719 306.042969 341.488281 306.289062 341.1875 C 306.53125 340.882812 306.738281 340.558594 306.90625 340.210938 C 307.078125 339.863281 307.207031 339.5 307.292969 339.121094 C 307.382812 338.746094 307.429688 338.363281 307.429688 337.976562 C 307.433594 337.585938 307.394531 337.203125 307.308594 336.824219 L 297.085938 290.179688 C 296.960938 289.605469 296.738281 289.066406 296.429688 288.5625 C 296.117188 288.0625 295.730469 287.625 295.273438 287.253906 C 294.8125 286.886719 294.304688 286.601562 293.746094 286.40625 C 293.1875 286.210938 292.613281 286.109375 292.023438 286.109375 L 274.136719 286.109375 C 274.273438 285.371094 274.371094 284.621094 274.371094 283.84375 L 274.371094 283.195312 C 274.371094 276.257812 268.675781 270.550781 261.738281 270.550781 Z M 141.882812 275.734375 L 261.738281 275.734375 C 265.847656 275.734375 269.1875 279.085938 269.1875 283.195312 L 269.1875 283.84375 C 269.1875 284.640625 269.027344 285.390625 268.792969 286.109375 L 134.828125 286.109375 C 134.597656 285.390625 134.433594 284.640625 134.433594 283.84375 L 134.433594 283.195312 C 134.433594 279.085938 137.777344 275.734375 141.882812 275.734375 Z M 113.410156 296.476562 L 287.855469 296.476562 L 295.8125 332.757812 L 105.441406 332.757812 L 107.71875 322.390625 L 209.585938 322.390625 C 209.933594 322.394531 210.265625 322.332031 210.589844 322.203125 C 210.910156 322.074219 211.195312 321.886719 211.441406 321.644531 C 211.6875 321.402344 211.878906 321.121094 212.011719 320.800781 C 212.144531 320.480469 212.214844 320.144531 212.214844 319.800781 C 212.214844 319.453125 212.144531 319.121094 212.011719 318.800781 C 211.878906 318.480469 211.6875 318.199219 211.441406 317.953125 C 211.195312 317.710938 210.910156 317.523438 210.589844 317.394531 C 210.265625 317.265625 209.933594 317.203125 209.585938 317.207031 L 108.855469 317.207031 Z M 219.949219 317.207031 C 219.605469 317.203125 219.269531 317.265625 218.949219 317.394531 C 218.625 317.523438 218.339844 317.710938 218.09375 317.953125 C 217.847656 318.199219 217.65625 318.480469 217.523438 318.800781 C 217.390625 319.121094 217.324219 319.453125 217.324219 319.800781 C 217.324219 320.144531 217.390625 320.480469 217.523438 320.800781 C 217.65625 321.121094 217.847656 321.402344 218.09375 321.644531 C 218.339844 321.886719 218.625 322.074219 218.949219 322.203125 C 219.269531 322.332031 219.605469 322.394531 219.949219 322.390625 L 225.132812 322.390625 C 225.480469 322.394531 225.816406 322.332031 226.136719 322.203125 C 226.457031 322.074219 226.742188 321.886719 226.988281 321.644531 C 227.238281 321.402344 227.425781 321.121094 227.5625 320.800781 C 227.695312 320.480469 227.761719 320.144531 227.761719 319.800781 C 227.761719 319.453125 227.695312 319.121094 227.5625 318.800781 C 227.425781 318.480469 227.238281 318.199219 226.988281 317.953125 C 226.742188 317.710938 226.457031 317.523438 226.136719 317.394531 C 225.816406 317.265625 225.480469 317.203125 225.132812 317.207031 Z M 240.683594 317.207031 C 240.335938 317.203125 240 317.265625 239.679688 317.394531 C 239.355469 317.523438 239.074219 317.710938 238.824219 317.953125 C 238.578125 318.199219 238.386719 318.480469 238.253906 318.800781 C 238.121094 319.121094 238.054688 319.453125 238.054688 319.800781 C 238.054688 320.144531 238.121094 320.480469 238.253906 320.800781 C 238.386719 321.121094 238.578125 321.402344 238.824219 321.644531 C 239.074219 321.886719 239.355469 322.074219 239.679688 322.203125 C 240 322.332031 240.335938 322.394531 240.683594 322.390625 L 261.414062 322.390625 C 261.761719 322.394531 262.09375 322.332031 262.417969 322.203125 C 262.738281 322.074219 263.023438 321.886719 263.269531 321.644531 C 263.515625 321.402344 263.707031 321.121094 263.839844 320.800781 C 263.976562 320.480469 264.042969 320.144531 264.042969 319.800781 C 264.042969 319.453125 263.976562 319.121094 263.839844 318.800781 C 263.707031 318.480469 263.515625 318.199219 263.269531 317.953125 C 263.023438 317.710938 262.738281 317.523438 262.417969 317.394531 C 262.09375 317.265625 261.761719 317.203125 261.414062 317.207031 Z M 240.683594 317.207031 " fill-opacity="1" fill-rule="nonzero"/></g><g fill="#ee6600" fill-opacity="1"><g transform="translate(20.727238, 395.932917)"><g><path d="M 24.1875 -37.5 L 24.1875 -30 L 11.265625 -30 L 11.265625 -22.546875 L 23.640625 -22.546875 L 23.640625 -15.046875 L 11.265625 -15.046875 L 11.265625 -7.5 L 24.1875 -7.5 L 24.1875 0 L 2.734375 0 L 2.734375 -37.5 Z M 24.1875 -37.5 "/></g></g></g><g fill="#ee6600" fill-opacity="1"><g transform="translate(47.090805, 395.932917)"><g><path d="M 7.90625 -9.734375 C 9.363281 -9.734375 10.597656 -9.222656 11.609375 -8.203125 C 12.628906 -7.191406 13.140625 -5.957031 13.140625 -4.5 C 13.140625 -3.070312 12.628906 -1.847656 11.609375 -0.828125 C 10.597656 0.179688 9.363281 0.6875 7.90625 0.6875 C 6.476562 0.6875 5.257812 0.179688 4.25 -0.828125 C 3.238281 -1.847656 2.734375 -3.070312 2.734375 -4.5 C 2.734375 -5.957031 3.238281 -7.191406 4.25 -8.203125 C 5.257812 -9.222656 6.476562 -9.734375 7.90625 -9.734375 Z M 7.90625 -9.734375 "/></g></g></g><g fill="#ee6600" fill-opacity="1"><g transform="translate(62.954394, 395.932917)"><g><path d="M 0.359375 -30 L 0.359375 -37.5 L 26.71875 -37.5 L 26.71875 -30 L 17.8125 -30 L 17.8125 0 L 9.265625 0 L 9.265625 -30 Z M 0.359375 -30 "/></g></g></g><g fill="#ee6600" fill-opacity="1"><g transform="translate(90.045229, 395.932917)"><g><path d="M 26.3125 -10.546875 L 9.40625 -10.546875 C 9.40625 -8.910156 9.9375 -7.695312 11 -6.90625 C 12.0625 -6.125 13.210938 -5.734375 14.453125 -5.734375 C 15.753906 -5.734375 16.785156 -5.90625 17.546875 -6.25 C 18.304688 -6.59375 19.171875 -7.28125 20.140625 -8.3125 L 25.953125 -5.40625 C 23.523438 -1.34375 19.492188 0.6875 13.859375 0.6875 C 10.347656 0.6875 7.332031 -0.515625 4.8125 -2.921875 C 2.300781 -5.335938 1.046875 -8.242188 1.046875 -11.640625 C 1.046875 -15.035156 2.300781 -17.941406 4.8125 -20.359375 C 7.332031 -22.785156 10.347656 -24 13.859375 -24 C 17.554688 -24 20.5625 -22.929688 22.875 -20.796875 C 25.195312 -18.660156 26.359375 -15.609375 26.359375 -11.640625 C 26.359375 -11.085938 26.34375 -10.722656 26.3125 -10.546875 Z M 9.640625 -15 L 18.5 -15 C 18.320312 -16.207031 17.84375 -17.132812 17.0625 -17.78125 C 16.289062 -18.4375 15.300781 -18.765625 14.09375 -18.765625 C 12.757812 -18.765625 11.695312 -18.414062 10.90625 -17.71875 C 10.125 -17.03125 9.703125 -16.125 9.640625 -15 Z M 9.640625 -15 "/></g></g></g><g fill="#ee6600" fill-opacity="1"><g transform="translate(117.454244, 395.932917)"><g><path d="M 2.734375 0 L 2.734375 -23.3125 L 10.765625 -23.3125 L 10.765625 -20.859375 L 10.859375 -20.859375 C 12.953125 -22.953125 15.179688 -24 17.546875 -24 C 18.691406 -24 19.832031 -23.847656 20.96875 -23.546875 C 22.113281 -23.242188 23.207031 -22.773438 24.25 -22.140625 C 25.289062 -21.503906 26.132812 -20.601562 26.78125 -19.4375 C 27.4375 -18.269531 27.765625 -16.910156 27.765625 -15.359375 L 27.765625 0 L 19.734375 0 L 19.734375 -13.1875 C 19.734375 -14.394531 19.34375 -15.453125 18.5625 -16.359375 C 17.789062 -17.273438 16.785156 -17.734375 15.546875 -17.734375 C 14.335938 -17.734375 13.238281 -17.257812 12.25 -16.3125 C 11.257812 -15.375 10.765625 -14.332031 10.765625 -13.1875 L 10.765625 0 Z M 2.734375 0 "/></g></g></g><g fill="#ee6600" fill-opacity="1"><g transform="translate(147.499616, 395.932917)"><g><path d="M 4.3125 -2.875 C 2.132812 -5.257812 1.046875 -8.175781 1.046875 -11.625 C 1.046875 -15.082031 2.132812 -18.007812 4.3125 -20.40625 C 6.5 -22.800781 9.273438 -24 12.640625 -24 C 15.722656 -24 18.265625 -23.03125 20.265625 -21.09375 L 20.265625 -39.09375 L 28.3125 -39.09375 L 28.3125 0 L 20.359375 0 L 20.359375 -2.640625 L 20.265625 -2.640625 C 18.265625 -0.421875 15.722656 0.6875 12.640625 0.6875 C 9.273438 0.6875 6.5 -0.5 4.3125 -2.875 Z M 11.15625 -15.59375 C 10.113281 -14.5625 9.59375 -13.242188 9.59375 -11.640625 C 9.59375 -10.035156 10.09375 -8.722656 11.09375 -7.703125 C 12.09375 -6.691406 13.410156 -6.1875 15.046875 -6.1875 C 16.617188 -6.1875 17.910156 -6.695312 18.921875 -7.71875 C 19.941406 -8.75 20.453125 -10.054688 20.453125 -11.640625 C 20.453125 -13.242188 19.925781 -14.5625 18.875 -15.59375 C 17.832031 -16.625 16.554688 -17.140625 15.046875 -17.140625 C 13.503906 -17.140625 12.207031 -16.625 11.15625 -15.59375 Z M 11.15625 -15.59375 "/></g></g><g transform="translate(178.544993, 395.932917)"><g><path d="M 26.3125 -10.546875 L 9.40625 -10.546875 C 9.40625 -8.910156 9.9375 -7.695312 11 -6.90625 C 12.0625 -6.125 13.210938 -5.734375 14.453125 -5.734375 C 15.753906 -5.734375 16.785156 -5.90625 17.546875 -6.25 C 18.304688 -6.59375 19.171875 -7.28125 20.140625 -8.3125 L 25.953125 -5.40625 C 23.523438 -1.34375 19.492188 0.6875 13.859375 0.6875 C 10.347656 0.6875 7.332031 -0.515625 4.8125 -2.921875 C 2.300781 -5.335938 1.046875 -8.242188 1.046875 -11.640625 C 1.046875 -15.035156 2.300781 -17.941406 4.8125 -20.359375 C 7.332031 -22.785156 10.347656 -24 13.859375 -24 C 17.554688 -24 20.5625 -22.929688 22.875 -20.796875 C 25.195312 -18.660156 26.359375 -15.609375 26.359375 -11.640625 C 26.359375 -11.085938 26.34375 -10.722656 26.3125 -10.546875 Z M 9.640625 -15 L 18.5 -15 C 18.320312 -16.207031 17.84375 -17.132812 17.0625 -17.78125 C 16.289062 -18.4375 15.300781 -18.765625 14.09375 -18.765625 C 12.757812 -18.765625 11.695312 -18.414062 10.90625 -17.71875 C 10.125 -17.03125 9.703125 -16.125 9.640625 -15 Z M 9.640625 -15 "/></g></g></g><g fill="#ee6600" fill-opacity="1"><g transform="translate(205.954008, 395.932917)"><g><path d="M 2.734375 0 L 2.734375 -23.3125 L 10.765625 -23.3125 L 10.765625 -19.953125 L 10.859375 -19.953125 C 10.921875 -20.078125 11.019531 -20.226562 11.15625 -20.40625 C 11.289062 -20.59375 11.585938 -20.910156 12.046875 -21.359375 C 12.503906 -21.816406 12.988281 -22.226562 13.5 -22.59375 C 14.007812 -22.957031 14.675781 -23.28125 15.5 -23.5625 C 16.320312 -23.851562 17.15625 -24 18 -24 C 18.875 -24 19.734375 -23.875 20.578125 -23.625 C 21.429688 -23.382812 22.054688 -23.144531 22.453125 -22.90625 L 23.09375 -22.546875 L 19.734375 -15.734375 C 18.734375 -16.578125 17.335938 -17 15.546875 -17 C 14.578125 -17 13.742188 -16.785156 13.046875 -16.359375 C 12.347656 -15.941406 11.851562 -15.425781 11.5625 -14.8125 C 11.28125 -14.207031 11.078125 -13.691406 10.953125 -13.265625 C 10.828125 -12.847656 10.765625 -12.515625 10.765625 -12.265625 L 10.765625 0 Z M 2.734375 0 "/></g></g></g></svg>